<svg xmlns="http://www.w3.org/2000/svg" width="38" height="24" viewBox="0 0 38 24">
  <path d="M35 0H3a2.9465 2.9465 0 00-3 3v18a3.0085 3.0085 0 003 3h32a2.9465 2.9465 0 003-3V3a3.0085 3.0085 0 00-3-3z" style="isolation:isolate" opacity=".07"/>
  <path fill="#fff" d="M35 1a2.0059 2.0059 0 012 2v18a2.0059 2.0059 0 01-2 2H3a2.0059 2.0059 0 01-2-2V3a2.0059 2.0059 0 012-2h32"/>
  <path fill="#000268" d="M3.5 7.861a2.318 2.318 0 012.3235-2.312H31.148a2.3177 2.3177 0 012.3233 2.3122v8.264a2.3179 2.3179 0 01-2.3233 2.312H5.8235A2.318 2.318 0 013.5 16.1251z"/>
  <path fill="#fff" d="M4.4536 7.9404v8.1067a1.4491 1.4491 0 001.4527 1.4447H19.174V6.4955H5.9063a1.449 1.449 0 00-1.4527 1.4449m18.1487 4.0127c0 .5164-.2554.8709-.678.8709a.7594.7594 0 01-.6848-.8273c0-.4852.274-.8459.6848-.8459a.7169.7169 0 01.6775.8023zm-2.4818 2.9602h1.119v-1.7602h.0125a1.1253 1.1253 0 001.0269.5286c.9639 0 1.4799-.7958 1.4799-1.7536a1.5117 1.5117 0 00-1.3872-1.636 1.278 1.278 0 00-1.2066.6598h-.0126v-.5842h-1.032zm5.1667-2.3323c0-.3105.2983-.4282.678-.4282.1679 0 .3299.0114.4726.0181a.7291.7291 0 01-.6901.7646c-.2615 0-.4603-.1302-.4603-.3545zm2.2574 1.0263a3.9915 3.9915 0 01-.062-.7648v-1.2064c0-.989-.715-1.344-1.5422-1.344a3.3472 3.3472 0 00-1.2934.2305l.0188.7592a2.0993 2.0993 0 011.032-.2429c.4038 0 .7336.1184.74.56a3.2607 3.2607 0 00-.5223-.044c-.5965 0-1.6727.1184-1.6727 1.107 0 .7032.5716 1.0198 1.2126 1.0198a1.1097 1.1097 0 001.0261-.5847h.0125c0 .1685.0183.3357.025.5104zm.5034 1.306a3.259 3.259 0 00.6963.075c1.0265 0 1.2688-.79 1.5858-1.6046l1.1883-3.016h-1.1199l-.6653 2.114h-.0124l-.6966-2.114h-1.206l1.3118 3.314a.5693.5693 0 01-.566.4483 1.3323 1.3323 0 01-.4416-.0688z"/>
  <path fill="#ff0007" d="M7.1872 11.9595c0-.4415.218-.8087.6348-.8087a.7087.7087 0 01.715.7648.7566.7566 0 01-.715.8333c-.3357 0-.6348-.2856-.6348-.7894m2.4318-1.5919H8.6053v.5843h-.0118a1.2668 1.2668 0 00-1.1014-.6598c-1.0069 0-1.4612.7224-1.4612 1.686a1.456 1.456 0 001.4424 1.6292 1.2633 1.2633 0 001.0887-.5535h.0125v.174c0 .6342-.3484.939-.9948.939a2.225 2.225 0 01-1.0945-.2671l-.0562.8834a3.7654 3.7654 0 001.2378.2053c1.306 0 1.9522-.4293 1.9522-1.7605zm1.892-1.3496h-1.1195v.8209h1.1195zm-1.119 4.5894h1.119v-3.2398h-1.119zm4.2362-3.2776a2.4195 2.4195 0 00-.3794-.0374.9997.9997 0 00-.9578.6722h-.0125v-.597h-1.0198v3.2398h1.1192V12.24c0-.6347.2927-1.014.8149-1.014a1.3002 1.3002 0 01.3789.0369l.0562-.9328zm1.9272 2.5686c-.5164 0-.7274-.429-.7274-.9077 0-.4851.211-.9143.7274-.9143.5167 0 .7281.4292.7281.9143 0 .4788-.2114.9077-.7281.9077m0 .7833a1.7044 1.7044 0 100-3.3896 1.7043 1.7043 0 100 3.3896"/>
</svg>