<svg xmlns="http://www.w3.org/2000/svg" viewBox="0 0 425 272" width="38" height="24">
	<path fill="#3C4043" d="M386.7 0H38l-4.3.1H30c-2.7.1-5.3.3-8 .8A27 27 0 008 8 25.5 25.5 0 00.8 22 52.7 52.7 0 000 33.8v208.1c.1 2.6.3 5.3.8 8a26.8 26.8 0 007.2 14 25.4 25.4 0 0014 7.2 53.8 53.8 0 0011.7.7H394.8a54 54 0 008-.7 27 27 0 0014-7.2 25.6 25.6 0 007.2-14 52.7 52.7 0 00.8-11.7V38.1v-4.3l-.1-3.7c0-2.7-.2-5.4-.7-8a26.6 26.6 0 00-7.2-14 25.6 25.6 0 00-14-7.2A53.3 53.3 0 00391 0h-4.4"/>
	<path fill="#FFFFFE" d="M386.7 9.1h4.3a159.1 159.1 0 0110.1.7 16.4 16.4 0 0114 14 45 45 0 01.6 10v204.4a142 142 0 01-.6 10 17.6 17.6 0 01-4.7 9.3 16.3 16.3 0 01-9.2 4.7 46 46 0 01-10.2.6H30.3c-2-.1-4.4-.2-6.7-.6a17.8 17.8 0 01-9.2-4.7 16.3 16.3 0 01-4.7-9.3 45.3 45.3 0 01-.6-10V33.7v-3.5c0-2 .2-4.4.6-6.6a17.7 17.7 0 014.7-9.2 16.4 16.4 0 019.2-4.7 45.2 45.2 0 0110.1-.6h353"/>
	<g fill="#3C4043">
		<path d="M204.5 142.2V181h-12.1V85.4h32.1c7.7-.2 15.3 2.8 20.7 8.3a27.9 27.9 0 011.4 39l-1.4 1.4a28.8 28.8 0 01-20.7 8.1h-20zm0-45v33.3h20.3c4.5.2 8.9-1.7 12-5a17 17 0 00-.4-23.7c-3.1-3-7.2-4.7-11.6-4.7h-20.3zM281.9 113.4c8.9 0 16 2.5 21.2 7.3a26 26 0 017.7 20V181h-11.6v-9h-.5a23 23 0 01-20 11.1c-7 0-13-2.1-17.8-6.4-4.7-4-7.3-9.8-7.2-16 0-6.8 2.6-12.1 7.6-16.2 5-4 11.8-6 20.3-6a36 36 0 0117.7 4v-2.8c0-4.2-1.8-8.2-5-11a18.3 18.3 0 00-27.7 4.2l-10.6-6.7c5.7-8.5 14.4-12.8 25.9-12.8zM266.2 161a10 10 0 004 8c2.7 2.2 6 3.3 9.4 3.2 5.1 0 10-2 13.6-5.7 4-3.8 6-8.3 6-13.5a24 24 0 00-15.8-4.5c-4.9 0-9 1.2-12.3 3.6a10.7 10.7 0 00-4.9 9z"/>
		<path d="M377.2 115.6l-40.4 94.1h-12.5l15-32.9-26.5-61.2H326l19.2 47h.2l18.8-47z"/>
	</g>
	<path fill="#4285F4" d="M155.6 133.9c0-3.8-.3-7.5-1-11.2h-51V144H133a25.4 25.4 0 01-10.9 16.6v13.8h17.5a54 54 0 0016-40.4z"/>
	<path fill="#34A853" d="M103.6 187.5c14.6 0 27-4.8 35.9-13.2L122 160.5a32.4 32.4 0 01-48.8-17.4H55.4v14.2a54 54 0 0048.3 30.2z"/>
	<path fill="#FBBC04" d="M73.3 143.2a33.6 33.6 0 010-21V108h-18a55.1 55.1 0 000 49.3l18-14.1z"/>
	<path fill="#EA4335" d="M103.6 99.5c7.8-.2 15.2 2.8 20.8 8.2L139.9 92a51.8 51.8 0 00-36.3-14.3A54 54 0 0055.3 108l18 14.2a32.4 32.4 0 0130.3-22.7z"/>
</svg>