<svg xmlns="http://www.w3.org/2000/svg" viewBox="0 0 38 24" width="38" height="24">
  <title>IceModz - iDEAL</title>
  <path d="M35 0H3a3 3 0 00-3 3v18a3 3 0 003 3h32a3 3 0 003-3V3a3 3 0 00-3-3z" opacity=".07" style="isolation:isolate"/>
  <path fill="#fff" d="M35 1a2 2 0 012 2v18a2 2 0 01-2 2H3a2 2 0 01-2-2V3a2 2 0 012-2h32"/>
  <path fill="#fff" d="M20.88 4a8.61 8.61 0 015.77 1.85C28.21 7.21 29 9.28 29 12c0 5.38-2.66 8-8.12 8H10V4z"/>
  <path d="M20.84 4.2A8.42 8.42 0 0126.48 6c1.53 1.33 2.3 3.35 2.3 6 0 5.25-2.59 7.8-7.94 7.8H10.22V4.2zm.23-1.2H9v18h12.07a9.67 9.67 0 006.21-1.92C29.09 17.57 30 15.19 30 12a10.69 10.69 0 00-.72-4.06 7.44 7.44 0 00-2-2.84A9.61 9.61 0 0021.07 3z"/>
  <path fill="#db4093" d="M20.68 17.24h-3.53V6.52h3.38c2.95 0 6.08 1.14 6.08 5.38 0 4.47-3.13 5.34-6.08 5.34z"/>
  <path d="M12.09 17.1v-5.65h3.47v5.65zm3.73-8.47a2 2 0 11-2-1.92 1.95 1.95 0 012 1.92z"/>
</svg>